------------------------------:TPB IS BENEDICTION TO ME :--------------------------


Screen Link :---

 
http://www.shotpix.com/images/06671518537741948667.jpg
 
http://www.shotpix.com/images/44036675153554494698.jpg



General Info :---  (Disc 1) :---


Format                           : Matroska
File size                        : 253 MiB
Duration                         : 1h 13mn
Overall bit rate                 : 478 Kbps
Movie name                       : P
Encoded date                     : UTC 2011-06-13 21:31:11
Writing application              : mkvmerge v4.6.0 ('Still Crazy After All These Years') built on Mar 10 2011 02:50:32
Writing library                  : libebml v1.2.0 + libmatroska v1.1.0

Video
ID                               : 1
Format                           : AVC
Format/Info                      : Advanced Video Codec
Format profile                   : High@L4.0
Format settings, CABAC           : Yes
Format settings, ReFrames        : 3 frames
Format settings, GOP             : M=3, N=48
Codec ID                         : V_MPEG4/ISO/AVC
Duration                         : 1h 13mn
Bit rate mode                    : Variable
Bit rate                         : 253 Kbps
Maximum bit rate                 : 25.0 Mbps
Width                            : 352 pixels
Height                           : 288 pixels
Display aspect ratio             : 1.222
Frame rate                       : 25.000 fps
Standard                         : PAL
Color space                      : YUV
Chroma subsampling               : 4:2:0
Bit depth                        : 8 bits
Scan type                        : Progressive
Bits/(Pixel*Frame)               : 0.100
Stream size                      : 129 MiB (51%)

Audio
ID                               : 2
Format                           : MPEG Audio
Format version                   : Version 1
Format profile                   : Layer 2
Codec ID                         : A_MPEG/L2
Codec ID/Hint                    : MP2
Duration                         : 1h 13mn
Bit rate mode                    : Constant
Bit rate                         : 224 Kbps
Channel(s)                       : 2 channels
Sampling rate                    : 44.1 KHz
Compression mode                 : Lossy
Stream size                      : 118 MiB (47%)


General Info :---  (Disc 2) :---


Format                           : Matroska
File size                        : 247 MiB
Duration                         : 1h 11mn
Overall bit rate                 : 485 Kbps
Movie name                       : 2
Encoded date                     : UTC 2011-06-13 22:01:59
Writing application              : mkvmerge v4.6.0 ('Still Crazy After All These Years') built on Mar 10 2011 02:50:32
Writing library                  : libebml v1.2.0 + libmatroska v1.1.0

Video
ID                               : 1
Format                           : AVC
Format/Info                      : Advanced Video Codec
Format profile                   : High@L4.0
Format settings, CABAC           : Yes
Format settings, ReFrames        : 3 frames
Format settings, GOP             : M=4, N=43
Codec ID                         : V_MPEG4/ISO/AVC
Duration                         : 1h 11mn
Bit rate mode                    : Variable
Bit rate                         : 260 Kbps
Maximum bit rate                 : 25.0 Mbps
Width                            : 352 pixels
Height                           : 288 pixels
Display aspect ratio             : 1.222
Frame rate                       : 25.000 fps
Standard                         : PAL
Color space                      : YUV
Chroma subsampling               : 4:2:0
Bit depth                        : 8 bits
Scan type                        : Progressive
Bits/(Pixel*Frame)               : 0.103
Stream size                      : 128 MiB (52%)

Audio
ID                               : 2
Format                           : MPEG Audio
Format version                   : Version 1
Format profile                   : Layer 2
Codec ID                         : A_MPEG/L2
Codec ID/Hint                    : MP2
Duration                         : 1h 11mn
Bit rate mode                    : Constant
Bit rate                         : 224 Kbps
Channel(s)                       : 2 channels
Sampling rate                    : 44.1 KHz
Compression mode                 : Lossy
Stream size                      : 114 MiB (46%)


Cast : ---


Director:   Sujit Mondal 

Producer:   Shree Venkatesh Films

Music:      Jeet Ganguly, Rishi, Samidh

Main Cast:  Dev, Srabanti, Premjit, Tapas Pal...  

Genre:      Action, Romance

Release:    Dec 24, 2010


Synopsis  :---

Nandini’s elder sister elopes with her boyfriend on the day of her marriage.Neelkantha Roy, her father, a very strict and stern man decides to find them at any cost. He manages to locate four of Ajoy’s friends from different places and brings them over to his place out of which one of them is Abeer.He holds them captive till they tell about the couple’s whereabouts. They tell him that they don’t know anything, but no one believes them. They decide to flee one day, but Abeer falls in love with a girl though he is unable to see her face. They are again held captive. Nandini ... 




------------------------------:TPB IS BENEDICTION TO ME :--------------------------



